<svg xmlns="http://www.w3.org/2000/svg" width="32" height="32" viewBox="0 0 32 32">
    <path fill="#FFF" fill-rule="evenodd" d="M16 12c-2.133 0-4.2.333-6.133.96v4.133c0 .52-.307.987-.747 1.2-1.307.654-2.493 1.494-3.547 2.467-.24.24-.573.373-.933.373-.373 0-.707-.146-.947-.386L.387 17.44c-.24-.227-.387-.56-.387-.933 0-.374.147-.707.387-.947C4.453 11.707 9.947 9.333 16 9.333c6.053 0 11.547 2.374 15.613 6.227.24.24.387.573.387.947 0 .373-.147.706-.387.946l-3.306 3.307c-.24.24-.574.387-.947.387-.36 0-.693-.147-.933-.374-1.054-.986-2.254-1.813-3.56-2.466-.44-.214-.747-.667-.747-1.2v-4.134C20.2 12.333 18.133 12 16 12z"/>
</svg>
