<svg xmlns="http://www.w3.org/2000/svg" width="24" height="24" viewBox="0 0 24 24">
    <path fill="#FFF" fill-rule="evenodd" d="M17.3 11c0 .74-.16 1.43-.43 2.05l1.23 1.23c.56-.98.9-2.09.9-3.28h-1.7zm-2.32.17c0-.06.02-.11.02-.17V5c0-1.66-1.34-3-3-3S9 3.34 9 5v.18l5.98 5.99zM3.635 3.635c-.35.35-.35.92 0 1.27L9.01 10.28V11c0 1.66 1.33 3 2.99 3 .22 0 .44-.03.65-.08l1.66 1.66c-.71.33-1.5.52-2.31.52-2.76 0-5.3-2.1-5.3-5.1H5c0 3.41 2.72 6.23 6 6.72V21h2v-3.28c.91-.13 1.77-.45 2.54-.9l3.554 3.546c.351.35.92.35 1.271-.001.35-.35.35-.92 0-1.27L4.905 3.635c-.35-.35-.92-.35-1.27 0z"/>
</svg>
